# xmcd
#
# Track frame offsets: 
#        150
#        17721
#        31834
#        44875
#        60396
#        79930
#        91858
#        102581
#        119049
#        135575
#        151318
#        165791
#        178830
#        196467
#        214104
#        230095
#
# Disc length: 3281 seconds
#
# Revision: 0
# Processed by: cddbd v1.5.2PL0 Copyright (c) Steve Scherf et al.
# Submitted via: ExactAudioCopy v1.3
#
DISCID=da0ccf10
DTITLE=Fiona Boyes - Blues In My Heart
DYEAR=2000
DGENRE=Blues
TTITLE0=Blues In My Heart
TTITLE1=Pig Meat
TTITLE2=She Could Play That Thing
TTITLE3=I Let The Blues In
TTITLE4=Have Faiths
TTITLE5=Honey You Can Take My Man
TTITLE6=My Say So
TTITLE7=Rowdy Blues
TTITLE8=Mean World
TTITLE9=Angel
TTITLE10=Two Legged Dog
TTITLE11=That Certain Something
TTITLE12=Hokum Rag
TTITLE13=Mercy (Mississippi Road)
TTITLE14=Canned Heat
TTITLE15=Hotel Room
EXTD=
EXTT0=
EXTT1=
EXTT2=
EXTT3=
EXTT4=
EXTT5=
EXTT6=
EXTT7=
EXTT8=
EXTT9=
EXTT10=
EXTT11=
EXTT12=
EXTT13=
EXTT14=
EXTT15=
PLAYORDER=
